<?xml version="1.0" standalone="no"?>
<!DOCTYPE svg PUBLIC "-//W3C//DTD SVG 20010904//EN"
 "http://www.w3.org/TR/2001/REC-SVG-20010904/DTD/svg10.dtd">
<svg version="1.0" xmlns="http://www.w3.org/2000/svg"
 width="512.000000pt" height="505.000000pt" viewBox="0 0 512.000000 505.000000"
 preserveAspectRatio="xMidYMid meet">

<g transform="translate(0.000000,505.000000) scale(0.100000,-0.100000)"
fill="#000000" stroke="none">
<path d="M1330 5043 c-301 -32 -588 -170 -800 -383 -148 -148 -253 -318 -319
-515 -50 -149 -64 -254 -65 -490 -1 -240 5 -266 77 -313 l41 -27 1181 -3 1181
-2 44 -45 44 -45 -1109 0 c-1231 0 -1186 2 -1316 -66 -146 -77 -255 -230 -281
-397 -39 -250 115 -501 362 -589 l65 -23 2103 -3 c1859 -2 2111 0 2169 13 185
43 340 193 397 384 20 69 21 199 1 274 -47 180 -186 327 -360 379 -38 11 -72
23 -74 25 -3 2 15 24 39 48 38 38 50 45 85 45 81 1 150 51 176 127 17 53 6
454 -16 553 -57 258 -171 474 -347 656 -185 191 -407 315 -676 376 l-97 22
-1235 2 c-679 0 -1251 -1 -1270 -3z m2575 -311 c188 -52 328 -129 460 -254
151 -143 252 -311 300 -502 27 -105 41 -261 31 -330 l-7 -46 -2129 0 -2128 0
-4 58 c-2 31 0 99 4 150 38 476 409 871 884 941 32 5 610 8 1284 7 l1225 -1
80 -23z m425 -1430 c0 -4 -143 -150 -318 -325 l-317 -317 -325 325 -325 325
643 0 c353 0 642 -3 642 -8z m-1085 -622 l250 -250 -1160 2 -1160 3 -32 60
c-70 133 -61 281 25 413 l14 22 907 0 906 0 250 -250z m1435 226 c93 -48 144
-128 144 -226 0 -96 -49 -175 -139 -223 -39 -21 -53 -22 -415 -25 l-375 -3
250 251 250 252 125 -4 c95 -3 133 -8 160 -22z"/>
<path d="M3022 4568 c-18 -6 -48 -28 -67 -49 -61 -67 -59 -157 4 -220 82 -82
204 -68 259 30 74 131 -54 286 -196 239z"/>
<path d="M2049 4537 c-77 -52 -100 -133 -56 -198 70 -105 206 -108 281 -6 15
20 21 43 21 77 0 55 -21 91 -75 128 -46 31 -124 31 -171 -1z"/>
<path d="M2507 4146 c-47 -17 -71 -38 -91 -81 -52 -108 26 -235 144 -235 180
0 230 236 66 311 -48 22 -68 23 -119 5z"/>
<path d="M1523 4111 c-52 -38 -77 -97 -63 -149 18 -67 89 -122 159 -122 93 0
174 88 162 175 -5 35 -48 91 -84 108 -57 27 -127 22 -174 -12z"/>
<path d="M3420 4118 c-97 -67 -104 -176 -16 -243 74 -56 177 -41 234 33 74 96
-4 232 -133 232 -38 0 -61 -6 -85 -22z"/>
<path d="M90 2042 c-74 -37 -102 -131 -60 -199 25 -42 65 -62 148 -72 81 -10
111 -24 183 -86 72 -62 176 -112 274 -132 155 -31 320 10 450 112 104 82 156
105 240 105 82 0 134 -20 204 -79 71 -59 124 -89 203 -115 213 -70 388 -30
596 139 51 41 105 58 184 57 72 -1 127 -25 198 -86 62 -53 170 -109 245 -126
75 -18 212 -15 280 5 82 23 161 65 228 120 79 64 133 86 212 86 76 0 136 -23
203 -80 123 -101 231 -144 372 -144 147 -1 270 44 380 139 68 58 121 82 204
92 96 12 143 51 152 129 6 49 -20 100 -66 131 -32 22 -43 24 -115 19 -130 -9
-230 -53 -348 -154 -66 -56 -130 -77 -216 -71 -74 6 -115 23 -181 78 -101 84
-217 133 -341 146 -134 13 -297 -40 -416 -136 -93 -75 -116 -85 -213 -85 -98
0 -132 14 -227 91 -99 81 -243 134 -363 134 -125 0 -279 -60 -384 -149 -70
-59 -127 -81 -210 -81 -75 0 -125 22 -208 90 -226 184 -517 184 -744 1 -82
-67 -119 -83 -195 -89 -89 -6 -147 15 -233 84 -85 68 -147 100 -244 125 -93
24 -147 24 -192 1z"/>
<path d="M225 1371 c-76 -47 -89 -103 -60 -272 81 -484 423 -881 893 -1034
191 -63 125 -60 1502 -60 1390 0 1317 -3 1522 65 439 147 778 529 867 978 33
169 35 211 9 262 -15 29 -35 51 -58 62 -33 17 -166 18 -2340 18 -2227 0 -2306
-1 -2335 -19z m4445 -275 c0 -28 -51 -169 -89 -244 -121 -240 -338 -424 -603
-512 -148 -49 -174 -50 -1398 -50 -679 0 -1180 4 -1230 10 -353 40 -643 239
-804 550 -43 83 -86 204 -86 241 0 19 46 19 2105 19 1777 0 2105 -2 2105 -14z"/>
</g>
</svg>
