
<svg version="1.0" xmlns="http://www.w3.org/2000/svg"
 width="78.000000pt" height="78.000000pt" viewBox="0 0 78.000000 78.000000"
 preserveAspectRatio="xMidYMid meet">

<g transform="translate(0.000000,78.000000) scale(0.100000,-0.100000)"
fill="#000000" stroke="none">
<path d="M202 578 c-22 -22 -12 -43 60 -115 l72 -73 -72 -73 c-72 -72 -82 -93
-60 -115 22 -22 43 -12 115 60 l73 72 73 -72 c72 -72 93 -82 115 -60 22 22 12
43 -60 115 l-72 73 72 73 c72 72 82 93 60 115 -22 22 -43 12 -115 -60 l-73
-72 -73 72 c-72 72 -93 82 -115 60z"/>
</g>
</svg>
